<?xml version="1.0"?>
<svg xmlns="http://www.w3.org/2000/svg" xmlns:xlink="http://www.w3.org/1999/xlink" version="1.1" id="Layer_1" x="0px" y="0px" viewBox="0 0 384 384" style="enable-background:new 0 0 384 384;" xml:space="preserve" width="512px" height="512px" class=""><g><g>
	<g>
		<g>
			<path d="M85.333,192c-15.616,0-30.059,4.523-42.667,11.883v-54.549C42.667,102.272,80.939,64,128,64h21.333V21.333H128     c-70.592,0-128,57.408-128,128v128c0,47.061,38.272,85.333,85.333,85.333c47.061,0,85.333-38.272,85.333-85.333     C170.667,230.272,132.395,192,85.333,192z" data-original="#000000" class="active-path" data-old_color="#dad445" fill="#dad445"/>
			<path d="M298.667,192c-15.616,0-30.059,4.523-42.667,11.883v-54.549C256,102.272,294.272,64,341.333,64h21.333V21.333h-21.333     c-70.592,0-128,57.408-128,128v128c0,47.061,38.272,85.333,85.333,85.333S384,324.395,384,277.333     C384,230.272,345.728,192,298.667,192z" data-original="#000000" class="active-path" data-old_color="#dad445" fill="#dad445"/>
		</g>
	</g>
</g></g> </svg>
